<?xml version="1.0" encoding="utf-8"?>
<!-- Generator: Adobe Illustrator 19.0.0, SVG Export Plug-In . SVG Version: 6.00 Build 0)  -->
<svg version="1.1" id="Layer_1" xmlns="http://www.w3.org/2000/svg" xmlns:xlink="http://www.w3.org/1999/xlink" x="0px" y="0px"
	 viewBox="0 0 512 512" style="enable-background:new 0 0 512 512;" xml:space="preserve">
<g id="XMLID_1_">
	<path id="XMLID_7_" d="M256,0C164.8,0,90.3,74.5,90.3,165.7v180.6C90.3,437.5,164.8,512,256,512s165.7-74.5,165.7-165.7V165.7
		C421.7,74.5,347.2,0,256,0z M391.9,346.3c0,74.5-60.5,135.9-135.9,135.9s-135.9-60.5-135.9-135.9V165.7
		c0-74.5,60.5-135.9,135.9-135.9s135.9,60.5,135.9,135.9V346.3z M256,105.2c-25.1,0-45.6,20.5-45.6,45.6v60.5
		c0,25.1,20.5,45.6,45.6,45.6s45.6-20.5,45.6-45.6v-60.5C301.6,125.7,281.1,105.2,256,105.2z M270.9,210.4c0,8.4-6.5,14.9-14.9,14.9
		s-14.9-6.5-14.9-14.9v-60.5c0-8.4,6.5-14.9,14.9-14.9s14.9,6.5,14.9,14.9V210.4z"/>
</g>
</svg>
